<svg width="240" height="91" viewBox="0 0 240 91" fill="none" xmlns="http://www.w3.org/2000/svg">
<path d="M1.97314 2.33222H3.10806V2.28473H15.7334C19.2183 2.28473 22.2981 2.5839 24.9776 3.17748C27.6572 3.77581 29.8987 4.75404 31.7071 6.11216C33.5154 7.47028 34.8858 9.24628 35.8229 11.4307C36.7601 13.6198 37.2263 16.3028 37.2263 19.4844C37.2263 22.666 36.7553 25.3775 35.8229 27.6141C34.8858 29.8508 33.5107 31.6742 31.7071 33.0846C29.8987 34.495 27.6572 35.5207 24.9776 36.1665C22.2981 36.8123 19.2136 37.1352 15.7334 37.1352H1.97314V2.33222ZM7.10147 6.25937V33.1606H14.8434C17.5041 33.1606 19.9058 32.9849 22.0438 32.6382C24.1818 32.2916 26.0136 31.6173 27.5441 30.6248C29.0746 29.6323 30.2472 28.2457 31.0713 26.4745C31.8907 24.7032 32.3051 22.3906 32.3051 19.5366C32.3051 16.6827 31.8954 14.4413 31.0713 12.6986C30.2472 10.9558 29.0746 9.60718 27.5441 8.64795C26.0136 7.68872 24.1818 7.04765 22.0438 6.73423C19.9058 6.42082 17.5088 6.25937 14.8434 6.25937H7.10147Z" fill="white"/>
<path d="M52.5688 2.67889L46.5505 9.7924H43.4424L47.7843 2.67889H52.5688Z" fill="white"/>
<path d="M60.8523 2.33221V19.2897L82.4488 2.33221H88.858L70.3178 17.1006L90.784 37.14H84.0781L66.6211 20.0353L60.8523 24.6082V37.14H55.724V2.33221H60.8523Z" fill="white"/>
<path d="M110.855 2.33221H116.228L134.029 37.14H128.656L124.61 29.2334H102.27L98.2246 37.14H93.0492L110.855 2.33221ZM104.441 24.9596H122.439L113.464 7.40854L104.441 24.9596Z" fill="white"/>
<path d="M136.986 2.33221H168.349V6.21188H142.114V20.4341H168.349V24.3138H142.114V37.1447H136.986V2.33221Z" fill="white"/>
<path d="M172.051 2.33221H203.414V6.21188H177.179V20.4341H203.414V24.3138H177.179V37.1447H172.051V2.33221Z" fill="white"/>
<path d="M238.474 2.33221V6.21188H212.239V17.8461H238.474V21.7258H212.239V33.2603H238.474V37.14H207.111V2.33221H238.474Z" fill="white"/>
<path d="M15.7287 38.6833H0.442627V0.788942H1.57755V0.741455H15.7287C19.3077 0.741455 22.5288 1.05487 25.3025 1.67219C28.1799 2.31326 30.6428 3.39121 32.6159 4.87755C34.6362 6.39712 36.1855 8.39631 37.2215 10.8229C38.2387 13.1972 38.752 16.1129 38.752 19.4892C38.752 22.8655 38.2387 25.8002 37.2262 28.2173C36.1902 30.6913 34.6456 32.7427 32.6348 34.3051C30.6616 35.8436 28.2034 36.9738 25.3261 37.6671C22.5429 38.3367 19.3124 38.6786 15.724 38.6786L15.7287 38.6833ZM3.4989 35.6014H15.7287C19.077 35.6014 22.0673 35.288 24.6197 34.6755C27.0732 34.0819 29.1452 33.1416 30.7699 31.8737C32.3616 30.6343 33.586 29.0055 34.4148 27.0253C35.2672 24.9882 35.7005 22.4571 35.7005 19.494C35.7005 16.5308 35.2719 14.033 34.4195 12.048C33.5954 10.1248 32.3758 8.54352 30.7935 7.3516C29.1688 6.1312 27.1014 5.2337 24.6479 4.6876C22.0909 4.11776 19.0911 3.82809 15.7334 3.82809H4.63382V3.87558H3.4989V35.6014ZM14.8434 34.7039H5.57095V4.72084H14.8434C17.5653 4.72084 20.0612 4.88704 22.2651 5.20995C24.6009 5.55661 26.6494 6.27366 28.3494 7.34211C30.1248 8.45804 31.4998 10.0394 32.4464 12.0385C33.3647 13.9807 33.8262 16.5023 33.8262 19.5367C33.8262 22.5711 33.3647 25.1544 32.4511 27.1251C31.5093 29.1575 30.1342 30.772 28.3682 31.9212C26.6682 33.0277 24.6244 33.7827 22.2839 34.1626C20.0753 34.5235 17.57 34.7039 14.8387 34.7039H14.8434ZM8.62723 31.6221H14.8387C17.4052 31.6221 19.7457 31.4511 21.7942 31.1187C23.7108 30.8053 25.3637 30.207 26.7059 29.3332C28.0009 28.4927 28.971 27.3435 29.6774 25.8239C30.3979 24.2616 30.7652 22.1485 30.7652 19.5414C30.7652 16.9344 30.4026 14.8925 29.6821 13.3682C28.9804 11.8866 28.015 10.7706 26.7294 9.95862C25.3873 9.11811 23.7391 8.54352 21.8177 8.26335C19.7645 7.95943 17.4146 7.80748 14.8387 7.80748H8.62723V31.6268V31.6221Z" fill="white"/>
<path d="M47.2568 11.331H40.7063L46.9272 1.13562H55.8794L47.2521 11.331H47.2568ZM48.6366 4.22226L47.0449 6.83402L49.2535 4.22226H48.6366Z" fill="white"/>
<path d="M94.5514 38.6833H83.4565L66.5128 22.082L62.3781 25.3586V38.6833H54.1935V0.78894H62.3781V16.1319L81.926 0.78894H93.2658L72.6394 17.2193L94.5561 38.6786L94.5514 38.6833ZM84.695 35.6014H87.0119L68.0009 16.9819L84.4548 3.87558H82.9714L59.3171 22.4429V3.87558H57.245V35.6014H59.3171V23.8627L66.72 17.9934L84.6903 35.6014H84.695Z" fill="white"/>
<path d="M136.539 38.6833H127.723L123.678 30.7768H103.202L99.157 38.6833H90.5392L109.922 0.78894H117.16L136.539 38.6786V38.6833ZM129.588 35.6014H131.523L115.295 3.87558H111.782L95.5592 35.6014H97.2969L101.342 27.6949H125.543L129.588 35.6014ZM124.949 26.4982H101.926L113.468 4.04653L124.949 26.4982ZM106.955 23.4164H119.929L113.459 10.7611L106.951 23.4164H106.955Z" fill="white"/>
<path d="M143.645 38.6833H135.46V0.78894H169.88V7.75049H143.645V18.8909H169.88V25.8524H143.645V38.6833ZM138.517 35.6014H140.589V22.7705H166.824V21.9728H140.589V4.6686H166.824V3.87558H138.517V35.6014Z" fill="white"/>
<path d="M178.705 38.6833H170.52V0.78894H204.94V7.75049H178.705V18.8909H204.94V25.8524H178.705V38.6833ZM173.577 35.6014H175.649V22.7705H201.884V21.9728H175.649V4.6686H201.884V3.87558H173.577V35.6014Z" fill="white"/>
<path d="M240 38.6833H205.58V0.78894H240V7.75049H213.765V16.3028H240V23.2644H213.765V31.717H240V38.6786V38.6833ZM208.637 35.6014H236.944V34.8037H210.709V20.1825H236.944V19.3847H210.709V4.6686H236.944V3.87558H208.637V35.6014Z" fill="white"/>
<path d="M1.97314 2.33222H3.10806V2.28473H15.7334C19.2183 2.28473 22.2981 2.5839 24.9776 3.17748C27.6572 3.77581 29.8987 4.75404 31.7071 6.11216C33.5154 7.47028 34.8858 9.24628 35.8229 11.4307C36.7601 13.6198 37.2263 16.3028 37.2263 19.4844C37.2263 22.666 36.7553 25.3775 35.8229 27.6141C34.8858 29.8508 33.5107 31.6742 31.7071 33.0846C29.8987 34.495 27.6572 35.5207 24.9776 36.1665C22.2981 36.8123 19.2136 37.1352 15.7334 37.1352H1.97314V2.33222ZM7.10147 6.25937V33.1606H14.8434C17.5041 33.1606 19.9058 32.9849 22.0438 32.6382C24.1818 32.2916 26.0136 31.6173 27.5441 30.6248C29.0746 29.6323 30.2472 28.2457 31.0713 26.4745C31.8907 24.7032 32.3051 22.3906 32.3051 19.5366C32.3051 16.6827 31.8954 14.4413 31.0713 12.6986C30.2472 10.9558 29.0746 9.60718 27.5441 8.64795C26.0136 7.68872 24.1818 7.04765 22.0438 6.73423C19.9058 6.42082 17.5088 6.25937 14.8434 6.25937H7.10147Z" fill="white"/>
<path d="M52.5688 2.67889L46.5505 9.7924H43.4424L47.7843 2.67889H52.5688Z" fill="white"/>
<path d="M60.8523 2.33221V19.2897L82.4488 2.33221H88.858L70.3178 17.1006L90.784 37.14H84.0781L66.6211 20.0353L60.8523 24.6082V37.14H55.724V2.33221H60.8523Z" fill="white"/>
<path d="M110.855 2.33221H116.228L134.029 37.14H128.656L124.61 29.2334H102.27L98.2246 37.14H93.0492L110.855 2.33221ZM104.441 24.9596H122.439L113.464 7.40854L104.441 24.9596Z" fill="white"/>
<path d="M136.986 2.33221H168.349V6.21188H142.114V20.4341H168.349V24.3138H142.114V37.1447H136.986V2.33221Z" fill="white"/>
<path d="M172.051 2.33221H203.414V6.21188H177.179V20.4341H203.414V24.3138H177.179V37.1447H172.051V2.33221Z" fill="white"/>
<path d="M238.474 2.33221V6.21188H212.239V17.8461H238.474V21.7258H212.239V33.2603H238.474V37.14H207.111V2.33221H238.474Z" fill="white"/>
<path d="M1.88843 53.86H15.6487C19.1335 53.86 22.2134 54.183 24.8929 54.8288C27.5724 55.4746 29.814 56.5003 31.6224 57.9107C33.4307 59.321 34.8011 61.1445 35.7382 63.3811C36.6753 65.6178 37.1416 68.3292 37.1416 71.5109C37.1416 74.6925 36.6706 77.3802 35.7382 79.5646C34.8011 81.7537 33.426 83.525 31.6224 84.8879C29.814 86.246 27.5724 87.2242 24.8929 87.8225C22.2134 88.4209 19.1288 88.7153 15.6487 88.7153H3.02335V88.6678H1.88843V53.86ZM14.7587 84.7406C17.4194 84.7406 19.8211 84.5839 21.9591 84.2658C24.097 83.9524 25.9289 83.3113 27.4594 82.3521C28.9899 81.3881 30.1625 80.0395 30.9866 78.3015C31.806 76.5587 32.2204 74.2793 32.2204 71.4634C32.2204 68.6474 31.8107 66.3016 30.9866 64.5256C30.1625 62.7496 28.9899 61.3677 27.4594 60.3752C25.9289 59.3828 24.097 58.7084 21.9591 58.3618C19.8211 58.0151 17.4241 57.8394 14.7587 57.8394H7.01675V84.7406H14.7587Z" fill="white"/>
<path d="M47.6996 88.3212L43.3577 81.2125H46.4657L52.4841 88.3212H47.6996Z" fill="white"/>
<path d="M55.6392 88.6678V53.86H60.7676V66.3918L66.5363 70.9648L83.9934 53.86H90.6993L70.2331 73.8994L88.7732 88.6678H82.364L60.7628 71.7103V88.6678H55.6345H55.6392Z" fill="white"/>
<path d="M92.9692 53.86H98.1447L102.19 61.7666H124.53L128.576 53.86H133.949L116.148 88.6678H110.775L92.9739 53.86H92.9692ZM113.384 83.5962L122.359 66.0451H104.361L113.384 83.5962Z" fill="white"/>
<path d="M136.906 53.86H142.034V66.691H168.269V70.5706H142.034V84.7929H168.269V88.6725H136.906V53.8648V53.86Z" fill="white"/>
<path d="M171.966 53.86H177.095V66.691H203.329V70.5706H177.095V84.7929H203.329V88.6725H171.966V53.8648V53.86Z" fill="white"/>
<path d="M207.026 88.6678V53.86H238.389V57.7397H212.154V69.2742H238.389V73.1539H212.154V84.7881H238.389V88.6678H207.026Z" fill="white"/>
<path d="M15.6486 90.2587H1.49747V90.2112H0.362549V52.3215H15.6486C19.237 52.3215 22.4676 52.6634 25.2507 53.333C28.128 54.0263 30.5909 55.1612 32.5594 56.6951C34.5702 58.2621 36.1148 60.3088 37.1509 62.7828C38.1634 65.1999 38.6767 68.1394 38.6767 71.5109C38.6767 74.8825 38.1634 77.8029 37.1462 80.1772C36.1054 82.6038 34.5561 84.6077 32.5406 86.1226C30.5674 87.6041 28.1045 88.6821 25.2272 89.3279C22.4534 89.9452 19.2323 90.2587 15.6533 90.2587H15.6486ZM4.55374 87.1768H15.6486C19.0063 87.1768 22.0061 86.8871 24.5632 86.3173C27.0167 85.7712 29.084 84.8737 30.7087 83.6533C32.291 82.4613 33.5107 80.8848 34.3348 78.9568C35.1824 76.9719 35.6157 74.4693 35.6157 71.5109C35.6157 68.5525 35.1824 66.0167 34.3301 63.9795C33.5012 61.9993 32.2768 60.3705 30.6851 59.1311C29.0605 57.8632 26.9884 56.9182 24.5349 56.3294C21.9825 55.7121 18.9922 55.4034 15.6439 55.4034H3.41882V87.1293H4.55374V87.1768ZM14.7586 86.2793H5.49087V56.2962H14.7633C17.4946 56.2962 19.9952 56.4766 22.2086 56.8375C24.5443 57.2174 26.5928 57.9724 28.2929 59.0789C30.0588 60.2281 31.4339 61.8426 32.3757 63.875C33.2893 65.8457 33.7508 68.4005 33.7508 71.4634C33.7508 74.5263 33.2846 77.0194 32.371 78.9616C31.4245 80.9655 30.0447 82.5421 28.274 83.658C26.574 84.7265 24.5255 85.4435 22.1897 85.7902C19.9858 86.1131 17.4899 86.2793 14.768 86.2793H14.7586ZM8.54715 83.1974H14.7586C17.3345 83.1974 19.6797 83.0454 21.7376 82.7415C23.6543 82.4566 25.3072 81.8868 26.6493 81.0462C27.935 80.2342 28.9051 79.123 29.602 77.6367C30.3225 76.1124 30.6851 74.0372 30.6851 71.4634C30.6851 68.8896 30.3178 66.7385 29.5973 65.1809C28.8909 63.6614 27.9208 62.5122 26.6258 61.6717C25.2837 60.7979 23.6307 60.1948 21.7141 59.8862C19.6656 59.5538 17.3251 59.3828 14.7586 59.3828H8.54715V83.2021V83.1974Z" fill="white"/>
<path d="M55.7994 89.8645H46.8472L40.6263 79.6691H47.1769L55.8041 89.8645H55.7994ZM48.5566 86.7778H49.1736L46.9649 84.1661L48.5566 86.7778Z" fill="white"/>
<path d="M93.181 90.2112H81.8412L62.298 74.8682V90.2112H54.1134V52.3215H62.298V65.6463L66.4327 68.9229L83.3764 52.3215H94.4713L72.5547 73.7808L93.181 90.2112ZM82.8914 87.1245H84.3748L67.9208 74.0182L86.9319 55.3987H84.6149L66.6446 73.0067L59.2417 67.1374V55.3987H57.1697V87.1245H59.2417V68.5572L82.8961 87.1245H82.8914Z" fill="white"/>
<path d="M117.076 90.2112H109.837L90.4591 52.3215H99.077L103.122 60.2281H123.598L127.643 52.3215H136.459L117.08 90.2112H117.076ZM111.702 87.1245H115.215L131.439 55.3987H129.503L125.458 63.3052H101.257L97.2121 55.3987H95.4744L111.698 87.1245H111.702ZM113.388 86.9536L101.846 64.5019H124.869L113.388 86.9536ZM106.875 67.5838L113.384 80.239L119.854 67.5838H106.88H106.875Z" fill="white"/>
<path d="M169.8 90.2112H135.38V52.3215H143.565V65.1524H169.8V72.114H143.565V83.2544H169.8V90.2159V90.2112ZM138.437 87.1245H166.744V86.3268H140.509V69.0226H166.744V68.2248H140.509V55.3939H138.437V87.1198V87.1245Z" fill="white"/>
<path d="M204.86 90.2112H170.44V52.3215H178.625V65.1524H204.86V72.114H178.625V83.2544H204.86V90.2159V90.2112ZM173.497 87.1245H201.804V86.3268H175.569V69.0226H201.804V68.2248H175.569V55.3939H173.497V87.1198V87.1245Z" fill="white"/>
<path d="M239.92 90.2112H205.5V52.3215H239.92V59.2831H213.685V67.7357H239.92V74.6973H213.685V83.2496H239.92V90.2112ZM208.557 87.1245H236.864V86.3268H210.629V71.6059H236.864V70.8081H210.629V56.187H236.864V55.3892H208.557V87.115V87.1245Z" fill="white"/>
<path d="M1.88843 53.86H15.6487C19.1335 53.86 22.2134 54.183 24.8929 54.8288C27.5724 55.4746 29.814 56.5003 31.6224 57.9107C33.4307 59.321 34.8011 61.1445 35.7382 63.3811C36.6753 65.6178 37.1416 68.3292 37.1416 71.5109C37.1416 74.6925 36.6706 77.3802 35.7382 79.5646C34.8011 81.7537 33.426 83.525 31.6224 84.8879C29.814 86.246 27.5724 87.2242 24.8929 87.8225C22.2134 88.4209 19.1288 88.7153 15.6487 88.7153H3.02335V88.6678H1.88843V53.86ZM14.7587 84.7406C17.4194 84.7406 19.8211 84.5839 21.9591 84.2658C24.097 83.9524 25.9289 83.3113 27.4594 82.3521C28.9899 81.3881 30.1625 80.0395 30.9866 78.3015C31.806 76.5587 32.2204 74.2793 32.2204 71.4634C32.2204 68.6474 31.8107 66.3016 30.9866 64.5256C30.1625 62.7496 28.9899 61.3677 27.4594 60.3752C25.9289 59.3828 24.097 58.7084 21.9591 58.3618C19.8211 58.0151 17.4241 57.8394 14.7587 57.8394H7.01675V84.7406H14.7587Z" fill="white"/>
<path d="M47.6996 88.3212L43.3577 81.2125H46.4657L52.4841 88.3212H47.6996Z" fill="white"/>
<path d="M55.6392 88.6678V53.86H60.7676V66.3918L66.5363 70.9648L83.9934 53.86H90.6993L70.2331 73.8994L88.7732 88.6678H82.364L60.7628 71.7103V88.6678H55.6345H55.6392Z" fill="white"/>
<path d="M92.9692 53.86H98.1447L102.19 61.7666H124.53L128.576 53.86H133.949L116.148 88.6678H110.775L92.9739 53.86H92.9692ZM113.384 83.5962L122.359 66.0451H104.361L113.384 83.5962Z" fill="white"/>
<path d="M136.906 53.86H142.034V66.691H168.269V70.5706H142.034V84.7929H168.269V88.6725H136.906V53.8648V53.86Z" fill="white"/>
<path d="M171.966 53.86H177.095V66.691H203.329V70.5706H177.095V84.7929H203.329V88.6725H171.966V53.8648V53.86Z" fill="white"/>
<path d="M207.026 88.6678V53.86H238.389V57.7397H212.154V69.2742H238.389V73.1539H212.154V84.7881H238.389V88.6678H207.026Z" fill="white"/>
<path d="M239.524 48.8834L0.5368 49.0401L0.508545 42.8431L239.524 42.1926C239.524 42.1926 232.875 42.8621 232.894 45.5356C232.913 48.3278 239.524 48.8787 239.524 48.8787V48.8834Z" fill="white"/>
<path d="M0.0329644 49.5578L0 42.3351L239.524 41.6797L239.576 42.7055C237.97 42.8669 233.393 43.7359 233.402 45.5357C233.417 47.4304 237.97 48.2377 239.567 48.3706L239.524 49.3963L0.0329644 49.5578ZM1.0219 43.3608L1.04544 48.5273L234.961 48.3706C233.567 47.7913 232.395 46.9033 232.385 45.5404C232.376 44.1965 233.6 43.3038 235.041 42.7197L1.0219 43.3608Z" fill="white"/>
</svg>
